G04 #@! TF.GenerationSoftware,KiCad,Pcbnew,(6.0.1)*
G04 #@! TF.CreationDate,2022-05-14T16:39:52+02:00*
G04 #@! TF.ProjectId,eurorack-PSU-extension,6575726f-7261-4636-9b2d-5053552d6578,rev?*
G04 #@! TF.SameCoordinates,Original*
G04 #@! TF.FileFunction,Soldermask,Top*
G04 #@! TF.FilePolarity,Negative*
%FSLAX46Y46*%
G04 Gerber Fmt 4.6, Leading zero omitted, Abs format (unit mm)*
G04 Created by KiCad (PCBNEW (6.0.1)) date 2022-05-14 16:39:52*
%MOMM*%
%LPD*%
G01*
G04 APERTURE LIST*
G04 Aperture macros list*
%AMRoundRect*
0 Rectangle with rounded corners*
0 $1 Rounding radius*
0 $2 $3 $4 $5 $6 $7 $8 $9 X,Y pos of 4 corners*
0 Add a 4 corners polygon primitive as box body*
4,1,4,$2,$3,$4,$5,$6,$7,$8,$9,$2,$3,0*
0 Add four circle primitives for the rounded corners*
1,1,$1+$1,$2,$3*
1,1,$1+$1,$4,$5*
1,1,$1+$1,$6,$7*
1,1,$1+$1,$8,$9*
0 Add four rect primitives between the rounded corners*
20,1,$1+$1,$2,$3,$4,$5,0*
20,1,$1+$1,$4,$5,$6,$7,0*
20,1,$1+$1,$6,$7,$8,$9,0*
20,1,$1+$1,$8,$9,$2,$3,0*%
%AMFreePoly0*
4,1,80,0.000002,0.000005,0.083620,-0.005995,0.083621,-0.005995,0.158501,-0.023995,0.158502,-0.023995,0.224619,-0.053994,0.224623,-0.053996,0.282000,-0.095994,0.282004,-0.095997,0.328372,-0.150245,0.328375,-0.150248,0.361495,-0.218998,0.361495,-0.218999,0.381365,-0.302248,0.381365,-0.302250,0.387965,-0.400000,0.387965,-1.112000,0.387964,-1.112004,0.387960,-1.112005,0.089960,-1.112005,
0.089956,-1.112004,0.089955,-1.112000,0.089955,-0.474000,0.087355,-0.418750,0.087355,-0.418749,0.079455,-0.371001,0.079455,-0.371000,0.066325,-0.330752,0.066325,-0.330750,0.047958,-0.298005,0.047956,-0.298004,0.023837,-0.271754,-0.006541,-0.253005,-0.006542,-0.253005,-0.043161,-0.241755,-0.086040,-0.238055,-0.148668,-0.243955,-0.200538,-0.261575,-0.241666,-0.290953,-0.272035,-0.332071,
-0.272035,-0.332072,-0.293915,-0.383191,-0.309545,-0.444570,-0.309545,-0.444571,-0.318945,-0.516189,-0.318945,-0.516190,-0.322045,-0.598060,-0.322045,-1.112060,-0.322046,-1.112064,-0.322050,-1.112065,-0.620050,-1.112065,-0.620054,-1.112064,-0.620055,-1.112060,-0.620055,-0.020060,-0.620054,-0.020056,-0.620050,-0.020055,-0.392047,-0.020055,-0.392047,-0.020056,-0.392046,-0.020056,-0.392046,-0.020057,
-0.392045,-0.020059,-0.352046,-0.160055,-0.336053,-0.160055,-0.307684,-0.120937,-0.307684,-0.120936,-0.274554,-0.087556,-0.274550,-0.087554,-0.236683,-0.059926,-0.236679,-0.059924,-0.194062,-0.038055,-0.147431,-0.021425,-0.099561,-0.009555,-0.050441,-0.002455,-0.050440,-0.002455,-0.000063,-0.000055,-0.000004,0.000003,-0.000004,0.000004,-0.000001,0.000005,0.000000,0.000006,0.000002,0.000005,
0.000002,0.000005,$1*%
%AMFreePoly1*
4,1,13,0.000004,1.520004,0.000005,1.520000,0.000005,0.000000,0.000004,-0.000004,0.000000,-0.000005,-0.298000,-0.000005,-0.298004,-0.000004,-0.298005,0.000000,-0.298005,1.520000,-0.298004,1.520004,-0.298000,1.520005,0.000000,1.520005,0.000004,1.520004,0.000004,1.520004,$1*%
%AMFreePoly2*
4,1,103,0.016220,-0.000495,0.031881,-0.001995,0.046971,-0.004495,0.061502,-0.007995,0.075472,-0.012495,0.088882,-0.017995,0.088884,-0.017997,0.101723,-0.024496,0.113999,-0.031994,0.114003,-0.031996,0.125250,-0.040294,0.125254,-0.040297,0.135051,-0.050324,0.135054,-0.050327,0.143254,-0.062047,0.143254,-0.062048,0.150054,-0.075457,0.150055,-0.075458,0.155255,-0.090549,0.159055,-0.107329,
0.161255,-0.125799,0.161255,-0.125800,0.162005,-0.145960,0.161255,-0.165679,0.161255,-0.165680,0.159055,-0.183837,0.159055,-0.183841,0.155255,-0.200429,0.155255,-0.200432,0.150055,-0.215462,0.150052,-0.215465,0.143256,-0.228929,0.143254,-0.228933,0.135054,-0.240843,0.135051,-0.240846,0.125254,-0.251183,0.125250,-0.251186,0.114003,-0.259984,0.113999,-0.259986,0.101726,-0.267482,
0.101723,-0.267484,0.088884,-0.273983,0.088882,-0.273985,0.075472,-0.279485,0.061502,-0.283985,0.046971,-0.287485,0.031881,-0.289985,0.016220,-0.291485,0.000000,-0.291985,-0.000001,-0.291985,-0.016690,-0.291485,-0.032750,-0.289985,-0.032751,-0.289985,-0.048191,-0.287485,-0.063001,-0.283985,-0.063002,-0.283985,-0.077192,-0.279485,-0.090752,-0.273985,-0.103692,-0.267484,-0.103695,-0.267482,
-0.116003,-0.259984,-0.116004,-0.259983,-0.126783,-0.251184,-0.126786,-0.251181,-0.136084,-0.240843,-0.136086,-0.240840,-0.143984,-0.228933,-0.143986,-0.228929,-0.150485,-0.215462,-0.155485,-0.200432,-0.155485,-0.200429,-0.159085,-0.183841,-0.159085,-0.183837,-0.161285,-0.165681,-0.161285,-0.165680,-0.162004,-0.145960,-0.161285,-0.125800,-0.161285,-0.125799,-0.159085,-0.107329,-0.155485,-0.090549,
-0.155485,-0.090548,-0.150485,-0.075458,-0.150483,-0.075456,-0.143985,-0.062048,-0.143983,-0.062046,-0.136084,-0.050327,-0.136081,-0.050324,-0.126784,-0.040297,-0.126780,-0.040294,-0.116003,-0.031996,-0.103692,-0.024496,-0.103688,-0.024494,-0.090752,-0.017995,-0.077192,-0.012495,-0.063002,-0.007995,-0.063001,-0.007995,-0.048191,-0.004495,-0.032751,-0.001995,-0.032750,-0.001995,-0.016690,-0.000495,
-0.000001,0.000005,0.000000,0.000005,0.016220,-0.000495,0.016220,-0.000495,$1*%
%AMFreePoly3*
4,1,29,-0.017996,1.092004,-0.017995,1.092000,-0.017995,0.898000,-0.017996,0.897996,-0.017997,0.897996,-0.509990,0.228005,0.000000,0.228005,0.000004,0.228004,0.000005,0.228000,0.000005,0.000000,0.000004,-0.000004,0.000000,-0.000005,-0.862000,-0.000005,-0.862004,-0.000004,-0.862005,0.000000,-0.862005,0.175998,-0.862006,0.175999,-0.862004,0.176003,-0.862004,0.176004,-0.862003,0.176004,
-0.356010,0.863995,-0.832000,0.863995,-0.832004,0.863996,-0.832005,0.864000,-0.832005,1.092000,-0.832004,1.092004,-0.832000,1.092005,-0.018000,1.092005,-0.017996,1.092004,-0.017996,1.092004,$1*%
%AMFreePoly4*
4,1,194,0.053520,1.131688,0.080110,1.130688,0.105770,1.128988,0.130490,1.126588,0.130491,1.126588,0.154270,1.123488,0.154271,1.123488,0.177111,1.119688,0.199021,1.115188,0.219991,1.109988,0.240652,1.104388,0.240653,1.104387,0.260621,1.098488,0.260622,1.098488,0.279902,1.092388,0.298492,1.085988,0.316401,1.079388,0.316402,1.079388,0.333622,1.072488,0.350152,1.065388,
0.365992,1.057988,0.365995,1.057985,0.365995,1.057981,0.277995,0.827981,0.277992,0.827978,0.277988,0.827978,0.260608,0.834778,0.243478,0.841278,0.226608,0.847478,0.209988,0.853378,0.209987,0.853379,0.193608,0.858978,0.177478,0.864278,0.161608,0.869278,0.145979,0.873978,0.130979,0.878178,0.115979,0.881878,0.100979,0.884978,0.085979,0.887478,0.070979,0.889478,
0.055980,0.890878,0.040980,0.891722,0.025980,0.892003,-0.028398,0.886803,-0.075528,0.871333,-0.075529,0.871333,-0.115397,0.845554,-0.148025,0.809466,-0.173395,0.763058,-0.173395,0.763056,-0.191525,0.706336,-0.202395,0.639309,-0.202395,0.639308,-0.205995,0.561968,-0.205057,0.522308,-0.202257,0.485339,-0.197557,0.451059,-0.190957,0.419469,-0.182557,0.390560,-0.172247,0.364340,
-0.172247,0.364338,-0.160059,0.340812,-0.160058,0.340811,-0.145999,0.319972,-0.145998,0.319971,-0.129749,0.301692,-0.111999,0.285852,-0.092749,0.272442,-0.092748,0.272441,-0.072000,0.261473,-0.049751,0.252973,-0.026001,0.246873,-0.000751,0.243173,0.025998,0.241973,0.049158,0.242348,0.071628,0.243448,0.093407,0.245348,0.114497,0.247948,0.134907,0.251348,0.154627,0.255448,
0.173657,0.260348,0.191996,0.265948,0.209935,0.272747,0.209936,0.272748,0.227746,0.280048,0.245436,0.287948,0.262996,0.296447,0.280435,0.305447,0.280437,0.305447,0.297744,0.315046,0.297745,0.315047,0.314935,0.325207,0.331994,0.335926,0.331994,0.335927,0.331998,0.335928,0.331999,0.335928,0.332002,0.335927,0.332003,0.335923,0.332003,0.081923,0.332002,0.081919,
0.332000,0.081919,0.314871,0.071329,0.314867,0.071327,0.297492,0.061530,0.297490,0.061528,0.279864,0.052531,0.279860,0.052529,0.261990,0.044328,0.261989,0.044328,0.243860,0.037028,0.225490,0.030528,0.225489,0.030528,0.206859,0.024828,0.187979,0.019928,0.168859,0.015228,0.148479,0.011128,0.126849,0.007728,0.103979,0.004928,0.103978,0.004928,0.079858,0.002728,
0.054478,0.001128,0.027858,0.000191,-0.000019,-0.000122,-0.000024,-0.000122,-0.000026,-0.000121,-0.000026,-0.000120,-0.000027,-0.000120,-0.000027,-0.000116,-0.000006,-0.000005,-0.059280,0.002095,-0.059281,0.002095,-0.115121,0.008395,-0.167531,0.018865,-0.167532,0.018865,-0.216501,0.033525,-0.216502,0.033525,-0.262032,0.052365,-0.304121,0.075396,-0.304123,0.075396,-0.342783,0.102616,
-0.342786,0.102619,-0.378003,0.134026,-0.378004,0.134027,-0.408944,0.169997,-0.408946,0.170000,-0.435754,0.210907,-0.435756,0.210911,-0.458442,0.256744,-0.458445,0.256748,-0.477005,0.307528,-0.491445,0.363249,-0.491445,0.363251,-0.501755,0.423909,-0.501755,0.423913,-0.507955,0.489500,-0.510055,0.560030,-0.508955,0.608870,-0.505755,0.655400,-0.505755,0.655401,-0.500455,0.699620,
-0.500455,0.699621,-0.493055,0.741531,-0.483455,0.781121,-0.483454,0.781123,-0.471765,0.818402,-0.457955,0.853372,-0.457953,0.853374,-0.442015,0.886032,-0.442013,0.886034,-0.424204,0.916502,-0.424204,0.916503,-0.404764,0.944912,-0.404764,0.944913,-0.383704,0.971253,-0.361014,0.995534,-0.361012,0.995535,-0.336703,1.017754,-0.336700,1.017756,-0.310763,1.037914,-0.283202,1.056004,
-0.283199,1.056006,-0.254014,1.072033,-0.254012,1.072035,-0.222952,1.086095,-0.190762,1.098285,-0.190761,1.098285,-0.157452,1.108595,-0.157451,1.108595,-0.123011,1.116995,-0.087451,1.123595,-0.050760,1.128295,-0.012950,1.131095,0.025990,1.132032,0.053520,1.131688,0.053520,1.131688,$1*%
%AMFreePoly5*
4,1,80,0.000001,0.000005,0.083630,-0.005995,0.083631,-0.005995,0.158501,-0.023995,0.158502,-0.023995,0.224619,-0.053994,0.224623,-0.053996,0.282000,-0.095994,0.282004,-0.095997,0.328372,-0.150245,0.328375,-0.150248,0.361503,-0.218995,0.361505,-0.218999,0.381375,-0.302248,0.381375,-0.302250,0.387975,-0.400000,0.387975,-1.112000,0.387974,-1.112004,0.387970,-1.112005,0.089970,-1.112005,
0.089966,-1.112004,0.089965,-1.112000,0.089965,-0.474000,0.087365,-0.418750,0.087365,-0.418749,0.079465,-0.371001,0.079465,-0.371000,0.066335,-0.330752,0.066335,-0.330750,0.047968,-0.298005,0.047966,-0.298004,0.023846,-0.271753,-0.006521,-0.253005,-0.043151,-0.241755,-0.086030,-0.238055,-0.148649,-0.243955,-0.200528,-0.261575,-0.241656,-0.290953,-0.272025,-0.332071,-0.272025,-0.332072,
-0.293905,-0.383191,-0.309535,-0.444570,-0.309535,-0.444571,-0.318935,-0.516189,-0.318935,-0.516190,-0.322035,-0.598060,-0.322035,-1.112060,-0.322036,-1.112064,-0.322040,-1.112065,-0.620040,-1.112065,-0.620044,-1.112064,-0.620045,-1.112060,-0.620045,-0.020060,-0.620044,-0.020056,-0.620040,-0.020055,-0.392037,-0.020055,-0.392037,-0.020056,-0.392036,-0.020056,-0.392036,-0.020057,-0.392035,-0.020059,
-0.352036,-0.160055,-0.336043,-0.160055,-0.307664,-0.120937,-0.307664,-0.120936,-0.274544,-0.087556,-0.274540,-0.087554,-0.236673,-0.059926,-0.236669,-0.059924,-0.194042,-0.038055,-0.147422,-0.021425,-0.147421,-0.021425,-0.099551,-0.009555,-0.050421,-0.002455,-0.050420,-0.002455,-0.000052,-0.000055,-0.000004,0.000003,-0.000004,0.000004,-0.000003,0.000004,-0.000001,0.000006,0.000001,0.000005,
0.000001,0.000005,$1*%
%AMFreePoly6*
4,1,262,0.000145,0.000017,0.000146,0.000013,0.000146,0.000009,0.000142,0.000008,0.000084,0.000003,0.053380,-0.001495,0.103511,-0.005995,0.150381,-0.013495,0.194001,-0.023995,0.194002,-0.023995,0.234371,-0.037495,0.234372,-0.037495,0.271502,-0.053995,0.271504,-0.053997,0.305369,-0.073494,0.305373,-0.073496,0.336000,-0.095994,0.336003,-0.095996,0.363663,-0.121086,0.363664,-0.121087,
0.387631,-0.149364,0.387634,-0.149367,0.407914,-0.180837,0.407915,-0.180838,0.424505,-0.215498,0.437414,-0.253337,0.437415,-0.253339,0.446615,-0.294369,0.452115,-0.338590,0.453915,-0.386000,0.453915,-1.114000,0.453914,-1.114004,0.453910,-1.114005,0.245908,-1.114005,0.245908,-1.114004,0.245906,-1.114004,0.245905,-1.114000,0.231505,-1.077002,0.224205,-1.058502,0.224205,-1.058499,
0.188206,-0.966005,0.180212,-0.966005,0.162594,-0.987253,0.162594,-0.987254,0.144714,-1.007003,0.126594,-1.025254,0.126592,-1.025255,0.108224,-1.042003,0.108223,-1.042004,0.089594,-1.057253,0.089593,-1.057254,0.070714,-1.071003,0.070713,-1.071004,0.051583,-1.083254,0.051579,-1.083256,0.032216,-1.094002,0.032212,-1.094004,0.011802,-1.103405,0.011801,-1.103405,-0.010418,-1.111505,
-0.010419,-1.111505,-0.034449,-1.118405,-0.060289,-1.124005,-0.069959,-1.125543,-0.087949,-1.128405,-0.117419,-1.131505,-0.148700,-1.133405,-0.181790,-1.134030,-0.217510,-1.132730,-0.251671,-1.128830,-0.284261,-1.122230,-0.284262,-1.122230,-0.315291,-1.113030,-0.315292,-1.113030,-0.344762,-1.101220,-0.344764,-1.101218,-0.372671,-1.086779,-0.372673,-1.086779,-0.399013,-1.069719,-0.399014,-1.069718,
-0.423793,-1.050029,-0.423796,-1.050026,-0.446294,-1.027559,-0.446296,-1.027555,-0.465794,-1.002148,-0.465795,-1.002147,-0.482294,-0.973808,-0.482295,-0.973807,-0.495795,-0.942527,-0.506295,-0.908306,-0.506295,-0.908304,-0.513795,-0.871146,-0.513795,-0.871142,-0.518295,-0.831056,-0.518295,-0.831054,-0.519726,-0.790010,-0.213970,-0.790010,-0.213345,-0.806419,-0.211445,-0.821639,-0.208345,-0.835668,
-0.203945,-0.848508,-0.198347,-0.860166,-0.198346,-0.860167,-0.191447,-0.870636,-0.191446,-0.870637,-0.183347,-0.879936,-0.173947,-0.888036,-0.163567,-0.894636,-0.163566,-0.894637,-0.152450,-0.900335,-0.152448,-0.900335,-0.140578,-0.905135,-0.127958,-0.909035,-0.127957,-0.909035,-0.114579,-0.912135,-0.100460,-0.914335,-0.085589,-0.915635,-0.069960,-0.916072,-0.046431,-0.915197,-0.023841,-0.912597,
-0.002181,-0.908197,0.018538,-0.902097,0.038318,-0.894197,0.038320,-0.894197,0.057158,-0.884597,0.057159,-0.884597,0.075066,-0.873219,0.075067,-0.873218,0.092035,-0.860099,0.092036,-0.860098,0.107507,-0.844878,0.120916,-0.828218,0.120917,-0.828218,0.132255,-0.810130,0.141555,-0.790600,0.148755,-0.769630,0.153955,-0.747221,0.157055,-0.723381,0.158055,-0.698102,0.158055,-0.619352,
0.157995,-0.608005,0.042001,-0.612005,0.007380,-0.613705,-0.024490,-0.616805,-0.053619,-0.621205,-0.079998,-0.627005,-0.103629,-0.634205,-0.124498,-0.642805,-0.124500,-0.642805,-0.142616,-0.652703,-0.142617,-0.652704,-0.157996,-0.664013,-0.171116,-0.676483,-0.182496,-0.689893,-0.192095,-0.704231,-0.192096,-0.704233,-0.199995,-0.719510,-0.199995,-0.719512,-0.206095,-0.735731,-0.210495,-0.752890,
-0.210495,-0.752891,-0.213095,-0.770979,-0.213095,-0.770980,-0.213970,-0.790010,-0.519726,-0.790010,-0.519795,-0.788025,-0.517895,-0.745965,-0.517895,-0.745964,-0.512195,-0.706775,-0.512195,-0.706774,-0.502695,-0.670464,-0.502695,-0.670463,-0.489355,-0.637023,-0.489352,-0.637019,-0.472194,-0.606463,-0.472194,-0.606462,-0.451224,-0.578772,-0.451224,-0.578771,-0.426444,-0.553962,-0.426443,-0.553961,
-0.397853,-0.532021,-0.365443,-0.512651,-0.365442,-0.512650,-0.329222,-0.495520,-0.289192,-0.480640,-0.289191,-0.480640,-0.245352,-0.468020,-0.245351,-0.468020,-0.197691,-0.457650,-0.146221,-0.449550,-0.090940,-0.443650,-0.031850,-0.440050,0.158145,-0.434050,0.158145,-0.386054,0.157426,-0.365275,0.155226,-0.345936,0.155226,-0.345934,0.151626,-0.328026,0.151626,-0.328025,0.146626,-0.311556,
0.140126,-0.296527,0.132227,-0.282938,0.122927,-0.270778,0.112147,-0.260059,0.112146,-0.260058,0.100588,-0.250659,0.100586,-0.250657,0.087900,-0.242560,0.087899,-0.242560,0.074091,-0.235660,0.074089,-0.235660,0.059149,-0.230060,0.043090,-0.225660,0.025900,-0.222560,0.007590,-0.220660,-0.011849,-0.220035,-0.031788,-0.220410,-0.051599,-0.221510,-0.071288,-0.223410,-0.090848,-0.226010,
-0.110288,-0.229410,-0.129597,-0.233510,-0.148786,-0.238410,-0.148787,-0.238410,-0.167846,-0.244009,-0.167847,-0.244010,-0.186848,-0.249710,-0.205847,-0.255810,-0.224847,-0.262210,-0.243847,-0.269010,-0.243848,-0.269010,-0.262847,-0.276210,-0.281847,-0.283810,-0.300847,-0.291710,-0.300849,-0.291710,-0.319847,-0.300010,-0.319851,-0.300010,-0.319854,-0.300007,-0.417853,-0.098007,-0.417854,-0.098003,
-0.417851,-0.098001,-0.396013,-0.087282,-0.396011,-0.087280,-0.373481,-0.077120,-0.350261,-0.067520,-0.326351,-0.058520,-0.301760,-0.050020,-0.276480,-0.042120,-0.250511,-0.034820,-0.250510,-0.034820,-0.223850,-0.028020,-0.196730,-0.021420,-0.169360,-0.015720,-0.141730,-0.010920,-0.113850,-0.007020,-0.085730,-0.003920,-0.085729,-0.003920,-0.057350,-0.001720,-0.057349,-0.001720,-0.028729,-0.000420,
0.000141,0.000018,0.000145,0.000017,0.000145,0.000017,$1*%
%AMFreePoly7*
4,1,332,-0.631995,0.706655,-0.631994,0.706655,-0.533994,0.690525,-0.441994,0.663645,-0.441993,0.663645,-0.355993,0.626025,-0.355992,0.626024,-0.277492,0.578404,-0.207992,0.521524,-0.207991,0.521523,-0.147494,0.455406,-0.147491,0.455403,-0.095991,0.380033,-0.095991,0.380032,-0.053992,0.296285,-0.053990,0.296282,-0.023990,0.205032,-0.023990,0.205031,-0.005991,0.106284,-0.005990,0.106280,
0.000010,0.000033,0.000010,0.000029,0.000005,0.000001,0.000005,-0.000001,-0.001395,-0.045869,-0.001395,-0.045870,-0.005495,-0.091496,-0.005495,-0.091500,-0.012395,-0.136879,-0.012395,-0.136881,-0.021995,-0.181999,-0.021995,-0.182001,-0.034495,-0.226000,-0.034495,-0.226002,-0.049995,-0.268002,-0.068494,-0.308000,-0.068495,-0.308002,-0.089995,-0.346000,-0.089996,-0.346003,-0.113496,-0.381123,
-0.113499,-0.381126,-0.139996,-0.412493,-0.169497,-0.440124,-0.169500,-0.440126,-0.201996,-0.464003,-0.201998,-0.464005,-0.237495,-0.482372,-0.237495,-0.482373,-0.237499,-0.482375,-0.275998,-0.495505,-0.275999,-0.495505,-0.317499,-0.503405,-0.317500,-0.503405,-0.362000,-0.506005,-0.362001,-0.506005,-0.397880,-0.503905,-0.397881,-0.503905,-0.431501,-0.497505,-0.462882,-0.486875,-0.462885,-0.486873,
-0.492011,-0.471994,-0.492013,-0.471994,-0.517883,-0.452744,-0.517886,-0.452741,-0.539514,-0.430994,-0.539516,-0.430990,-0.556894,-0.406743,-0.556896,-0.406739,-0.570013,-0.379995,-0.586008,-0.379995,-0.607756,-0.404243,-0.607757,-0.404244,-0.633007,-0.426994,-0.633010,-0.426996,-0.661756,-0.448243,-0.661757,-0.448244,-0.694007,-0.467994,-0.694011,-0.467996,-0.728758,-0.484615,-0.728759,-0.484615,
-0.767009,-0.496495,-0.767010,-0.496495,-0.808759,-0.503595,-0.831990,-0.504827,-0.854010,-0.505995,-0.938010,-0.499395,-0.938012,-0.499395,-1.012011,-0.479525,-1.012015,-0.479523,-1.012015,-0.479522,-1.076009,-0.446406,-1.076013,-0.446404,-1.130013,-0.400024,-1.130016,-0.400020,-1.172014,-0.341903,-1.172016,-0.341899,-1.202015,-0.275522,-1.202015,-0.275519,-1.220015,-0.200901,-1.220015,-0.200897,
-1.225727,-0.122000,-1.225727,-0.121995,-1.000015,-0.121995,-1.000000,-0.121995,-0.999996,-0.121996,-0.999995,-0.122000,-0.997095,-0.173119,-0.988495,-0.216488,-0.974115,-0.252108,-0.953986,-0.279986,-0.953987,-0.279986,-0.929117,-0.300986,-0.929116,-0.300987,-0.900488,-0.315985,-0.868119,-0.324985,-0.831990,-0.327985,-0.785742,-0.323485,-0.746992,-0.309985,-0.715743,-0.287486,-0.691995,-0.255988,
-0.673125,-0.216239,-0.673125,-0.216238,-0.658495,-0.170989,-0.648115,-0.120239,-0.642015,-0.063989,-0.630015,0.152006,-0.641511,0.153905,-0.654011,0.155505,-0.667511,0.156905,-0.682010,0.158005,-0.682011,0.158005,-0.696261,0.159805,-0.711010,0.161005,-0.711011,0.161005,-0.726260,0.161755,-0.742010,0.162005,-0.787509,0.159405,-0.828009,0.151505,-0.863508,0.138375,-0.863509,0.138375,
-0.894007,0.120006,-0.920136,0.098377,-0.942506,0.073497,-0.961136,0.045377,-0.976015,0.013999,-0.986515,-0.019251,-0.994015,-0.053000,-0.994015,-0.053001,-0.998515,-0.087250,-0.998515,-0.087251,-1.000015,-0.121995,-1.225727,-0.121995,-1.226015,-0.118020,-1.222415,-0.053019,-1.222414,-0.053015,-1.211535,0.007981,-1.211535,0.007982,-1.193415,0.064982,-1.168045,0.117982,-1.168043,0.117984,
-1.136044,0.167103,-1.136041,0.167106,-1.098044,0.210473,-1.098043,0.210474,-1.054043,0.248104,-1.004043,0.279974,-1.004042,0.279975,-0.948665,0.306223,-0.948661,0.306225,-0.888541,0.324975,-0.823661,0.336225,-0.823660,0.336225,-0.754041,0.339925,-0.754040,0.339925,-0.706660,0.338825,-0.658540,0.335425,-0.658539,0.335425,-0.609659,0.329825,-0.560039,0.321925,-0.511919,0.313625,
-0.469549,0.304925,-0.432919,0.295625,-0.402038,0.285925,-0.402037,0.285924,-0.402036,0.285924,-0.402035,0.285923,-0.402035,0.285920,-0.422035,-0.124079,-0.422035,-0.124080,-0.422910,-0.134210,-0.423535,-0.144579,-0.423535,-0.144580,-0.423910,-0.155210,-0.424035,-0.166080,-0.424035,-0.192080,-0.422635,-0.229709,-0.418535,-0.260579,-0.411635,-0.284699,-0.402037,-0.302076,-0.389787,-0.313456,
-0.377040,-0.321555,-0.377038,-0.321555,-0.363788,-0.326455,-0.350040,-0.328055,-0.328922,-0.325255,-0.309542,-0.316955,-0.291923,-0.303206,-0.276044,-0.283957,-0.276043,-0.283956,-0.261165,-0.259208,-0.248545,-0.230960,-0.248545,-0.230958,-0.238175,-0.199208,-0.230075,-0.163959,-0.223075,-0.125079,-0.218075,-0.084450,-0.215075,-0.042080,-0.214075,0.002050,-0.218275,0.082050,-0.218275,0.082051,
-0.231025,0.156049,-0.252275,0.224049,-0.282025,0.286048,-0.282025,0.286050,-0.319143,0.341545,-0.319144,0.341546,-0.362524,0.390047,-0.412143,0.431546,-0.468023,0.466046,-0.468024,0.466047,-0.528902,0.493165,-0.593521,0.512535,-0.661891,0.524155,-0.734010,0.528055,-0.834884,0.522555,-0.927504,0.506055,-1.011883,0.478555,-1.088001,0.440057,-1.088002,0.440056,-1.154751,0.392937,
-1.154752,0.392936,-1.213001,0.337567,-1.262751,0.273937,-1.304000,0.202060,-1.304000,0.202058,-1.336380,0.124439,-1.359510,0.041560,-1.359510,0.041559,-1.373380,-0.046559,-1.373380,-0.046560,-1.377980,-0.139940,-1.368980,-0.267064,-1.341980,-0.378438,-1.296980,-0.474058,-1.233982,-0.553936,-1.153863,-0.616935,-1.057485,-0.661935,-1.057484,-0.661935,-0.944859,-0.688935,-0.815985,-0.697935,
-0.757485,-0.696435,-0.697986,-0.691935,-0.637486,-0.684435,-0.575986,-0.673935,-0.514236,-0.660065,-0.454986,-0.644435,-0.398237,-0.627055,-0.343986,-0.607935,-0.343982,-0.607935,-0.343980,-0.607938,-0.343980,-0.795940,-0.343981,-0.795944,-0.343982,-0.795944,-0.343983,-0.795945,-0.393363,-0.814945,-0.393364,-0.814945,-0.445483,-0.831945,-0.445484,-0.831945,-0.500364,-0.846945,-0.557984,-0.859945,
-0.617864,-0.870445,-0.679484,-0.877945,-0.742865,-0.882445,-0.807985,-0.883945,-0.927485,-0.878445,-0.927486,-0.878445,-1.037986,-0.861945,-1.037987,-0.861945,-1.139486,-0.834445,-1.139490,-0.834443,-1.231987,-0.795945,-1.231990,-0.795942,-1.314858,-0.747194,-1.314859,-0.747193,-1.387488,-0.688944,-1.387491,-0.688941,-1.449869,-0.621193,-1.449871,-0.621190,-1.501989,-0.543943,-1.501991,-0.543939,
-1.542240,-0.456812,-1.570990,-0.361431,-1.570990,-0.361429,-1.588240,-0.257806,-1.588240,-0.257802,-1.593940,-0.145930,-1.590240,-0.056549,-1.578990,0.029571,-1.560240,0.112451,-1.560240,0.112452,-1.533990,0.192081,-1.533990,0.192082,-1.500740,0.267582,-1.500737,0.267585,-1.460989,0.338082,-1.460989,0.338083,-1.414739,0.403583,-1.414736,0.403586,-1.361989,0.464083,-1.361988,0.464084,
-1.303109,0.519713,-1.303108,0.519714,-1.238488,0.568584,-1.168118,0.610704,-1.168117,0.610705,-1.091998,0.646084,-1.091997,0.646085,-1.009746,0.674955,-0.922996,0.695585,-0.831745,0.707955,-0.735995,0.712055,-0.631995,0.706655,-0.631995,0.706655,$1*%
%AMFreePoly8*
4,1,262,0.000046,0.000015,0.000046,0.000010,0.000043,0.000008,0.000031,0.000004,0.053370,-0.001495,0.103501,-0.005995,0.150371,-0.013495,0.193991,-0.023995,0.193992,-0.023995,0.234372,-0.037495,0.271492,-0.053995,0.271494,-0.053997,0.305373,-0.073496,0.336000,-0.095994,0.336003,-0.095996,0.363663,-0.121086,0.363664,-0.121087,0.387631,-0.149364,0.387634,-0.149367,0.407914,-0.180837,
0.407915,-0.180838,0.424505,-0.215498,0.437414,-0.253337,0.437415,-0.253339,0.446615,-0.294369,0.452115,-0.338590,0.453915,-0.386000,0.453915,-1.114000,0.453914,-1.114004,0.453910,-1.114005,0.245908,-1.114005,0.245907,-1.114004,0.245906,-1.114004,0.245905,-1.114002,0.238605,-1.095502,0.195405,-0.984502,0.188106,-0.966005,0.180112,-0.966005,0.162484,-0.987253,0.162481,-0.987256,
0.144614,-1.007003,0.126484,-1.025254,0.126482,-1.025255,0.108114,-1.042003,0.108113,-1.042004,0.089484,-1.057253,0.089483,-1.057254,0.070604,-1.071003,0.070603,-1.071004,0.051483,-1.083254,0.051479,-1.083256,0.032106,-1.094002,0.032102,-1.094004,0.011692,-1.103405,0.011691,-1.103405,-0.010528,-1.111505,-0.010529,-1.111505,-0.034559,-1.118405,-0.060399,-1.124005,-0.069969,-1.125527,
-0.088059,-1.128405,-0.117529,-1.131505,-0.148810,-1.133405,-0.181900,-1.134030,-0.217620,-1.132730,-0.251781,-1.128830,-0.284371,-1.122230,-0.284372,-1.122230,-0.315401,-1.113030,-0.315402,-1.113030,-0.344872,-1.101220,-0.344874,-1.101218,-0.372781,-1.086779,-0.372783,-1.086779,-0.399123,-1.069719,-0.399124,-1.069718,-0.423903,-1.050029,-0.423906,-1.050026,-0.446404,-1.027559,-0.446406,-1.027555,
-0.465904,-1.002148,-0.465905,-1.002147,-0.482404,-0.973808,-0.482405,-0.973807,-0.495905,-0.942527,-0.506405,-0.908306,-0.506405,-0.908304,-0.513905,-0.871146,-0.513905,-0.871142,-0.518405,-0.831056,-0.518405,-0.831054,-0.519836,-0.790010,-0.213980,-0.790010,-0.213355,-0.806419,-0.211455,-0.821639,-0.208355,-0.835668,-0.203955,-0.848508,-0.198357,-0.860166,-0.198356,-0.860167,-0.191457,-0.870636,
-0.191456,-0.870637,-0.183357,-0.879936,-0.173957,-0.888036,-0.163587,-0.894636,-0.163586,-0.894637,-0.152470,-0.900335,-0.152468,-0.900335,-0.140588,-0.905135,-0.127968,-0.909035,-0.127967,-0.909035,-0.114599,-0.912135,-0.100480,-0.914335,-0.085599,-0.915635,-0.069970,-0.916072,-0.046441,-0.915197,-0.023851,-0.912597,-0.002191,-0.908197,0.018528,-0.902097,0.038308,-0.894197,0.038310,-0.894197,
0.057148,-0.884597,0.057149,-0.884597,0.075056,-0.873219,0.075057,-0.873218,0.092025,-0.860099,0.092026,-0.860098,0.107497,-0.844878,0.120906,-0.828218,0.120907,-0.828218,0.132245,-0.810130,0.141545,-0.790600,0.148745,-0.769630,0.153945,-0.747221,0.157045,-0.723381,0.158045,-0.698102,0.158045,-0.619352,0.157995,-0.608005,0.042001,-0.612005,0.007370,-0.613705,-0.024500,-0.616805,
-0.053629,-0.621205,-0.079998,-0.627005,-0.103628,-0.634205,-0.124508,-0.642805,-0.124510,-0.642805,-0.142626,-0.652703,-0.142627,-0.652704,-0.157996,-0.664013,-0.157997,-0.664014,-0.171126,-0.676483,-0.182506,-0.689893,-0.192105,-0.704231,-0.192106,-0.704233,-0.200005,-0.719510,-0.200005,-0.719512,-0.206105,-0.735731,-0.210505,-0.752890,-0.210505,-0.752891,-0.213105,-0.770979,-0.213105,-0.770980,
-0.213980,-0.790010,-0.519836,-0.790010,-0.519905,-0.788025,-0.518005,-0.745965,-0.518005,-0.745964,-0.512305,-0.706775,-0.512305,-0.706774,-0.502805,-0.670464,-0.502805,-0.670463,-0.489465,-0.637023,-0.489462,-0.637019,-0.472304,-0.606463,-0.472304,-0.606462,-0.451334,-0.578772,-0.451334,-0.578771,-0.426554,-0.553962,-0.426553,-0.553961,-0.397963,-0.532021,-0.365553,-0.512651,-0.365552,-0.512650,
-0.329332,-0.495520,-0.289302,-0.480640,-0.289301,-0.480640,-0.245462,-0.468020,-0.245461,-0.468020,-0.197801,-0.457650,-0.146331,-0.449550,-0.091050,-0.443650,-0.031960,-0.440050,0.158035,-0.434050,0.158035,-0.386054,0.157316,-0.365275,0.155116,-0.345936,0.155116,-0.345934,0.151516,-0.328026,0.151516,-0.328025,0.146516,-0.311556,0.140016,-0.296527,0.132117,-0.282938,0.122817,-0.270778,
0.112037,-0.260059,0.112036,-0.260058,0.100478,-0.250659,0.100476,-0.250657,0.087790,-0.242560,0.087789,-0.242560,0.073981,-0.235660,0.073979,-0.235660,0.059039,-0.230060,0.042980,-0.225660,0.025790,-0.222560,0.007480,-0.220660,-0.011959,-0.220035,-0.031898,-0.220410,-0.051709,-0.221510,-0.071398,-0.223410,-0.090958,-0.226010,-0.110398,-0.229410,-0.129707,-0.233510,-0.148896,-0.238410,
-0.148897,-0.238410,-0.167956,-0.244009,-0.167957,-0.244010,-0.186958,-0.249710,-0.205957,-0.255810,-0.224957,-0.262210,-0.243957,-0.269010,-0.243958,-0.269010,-0.262957,-0.276210,-0.281957,-0.283810,-0.300957,-0.291710,-0.300959,-0.291710,-0.319957,-0.300010,-0.319961,-0.300010,-0.319964,-0.300007,-0.417963,-0.098007,-0.417964,-0.098003,-0.417961,-0.098001,-0.396123,-0.087282,-0.396121,-0.087280,
-0.373591,-0.077120,-0.350371,-0.067520,-0.326461,-0.058520,-0.301870,-0.050020,-0.276590,-0.042120,-0.250621,-0.034820,-0.250620,-0.034820,-0.223960,-0.028020,-0.196830,-0.021420,-0.169460,-0.015720,-0.141830,-0.010920,-0.113961,-0.007020,-0.113960,-0.007020,-0.085830,-0.003920,-0.085829,-0.003920,-0.057460,-0.001720,-0.057459,-0.001720,-0.028830,-0.000420,-0.028829,-0.000420,0.000039,0.000018,
0.000044,0.000018,0.000046,0.000015,0.000046,0.000015,$1*%
%AMFreePoly9*
4,1,123,0.000177,0.000015,0.000178,0.000011,0.000177,0.000007,0.000173,0.000006,0.000101,0.000001,0.042910,-0.001495,0.042911,-0.001495,0.083631,-0.005995,0.122161,-0.013495,0.158502,-0.023995,0.192662,-0.037495,0.192664,-0.037497,0.224629,-0.053994,0.224633,-0.053996,0.254409,-0.073494,0.254413,-0.073496,0.282001,-0.095995,0.282004,-0.095996,0.306841,-0.121304,0.306844,-0.121307,
0.328374,-0.150247,0.328374,-0.150248,0.346594,-0.182807,0.346595,-0.182808,0.361505,-0.218998,0.361505,-0.218999,0.373094,-0.258807,0.373095,-0.258809,0.381394,-0.302246,0.381395,-0.302249,0.386395,-0.349310,0.388095,-0.399999,0.388095,-1.112000,0.388094,-1.112004,0.388090,-1.112005,0.090090,-1.112005,0.090086,-1.112004,0.090085,-1.112000,0.090085,-0.474000,0.089429,-0.445440,
0.087429,-0.418750,0.084129,-0.393941,0.084129,-0.393940,0.079529,-0.371001,0.073629,-0.349941,0.066429,-0.330752,0.057930,-0.313443,0.048130,-0.298003,0.036850,-0.283943,0.024011,-0.271754,0.024010,-0.271753,0.009601,-0.261444,-0.006366,-0.253045,-0.006368,-0.253045,-0.023898,-0.246445,-0.042987,-0.241745,-0.063647,-0.238945,-0.085866,-0.238008,-0.118526,-0.239508,-0.148495,-0.243908,
-0.175774,-0.251208,-0.200364,-0.261488,-0.200366,-0.261488,-0.222273,-0.274707,-0.241492,-0.290866,-0.258022,-0.309956,-0.258023,-0.309957,-0.271861,-0.331984,-0.271861,-0.331985,-0.283581,-0.356264,-0.293741,-0.383104,-0.302341,-0.412513,-0.302341,-0.412514,-0.309341,-0.444482,-0.309341,-0.444484,-0.314841,-0.479013,-0.314841,-0.479014,-0.318741,-0.516102,-0.318741,-0.516103,-0.321041,-0.555763,
-0.321822,-0.597983,-0.321822,-1.111983,-0.321823,-1.111987,-0.321827,-1.111988,-0.619827,-1.111988,-0.619831,-1.111987,-0.619832,-1.111983,-0.619832,-0.019983,-0.619831,-0.019979,-0.619827,-0.019978,-0.391824,-0.019978,-0.391824,-0.019979,-0.391823,-0.019979,-0.391823,-0.019980,-0.391822,-0.019982,-0.351823,-0.159978,-0.335830,-0.159978,-0.322241,-0.139701,-0.322241,-0.139700,-0.307461,-0.120860,
-0.307460,-0.120859,-0.291491,-0.103450,-0.291490,-0.103449,-0.274330,-0.087479,-0.255990,-0.072949,-0.236460,-0.059859,-0.236456,-0.059857,-0.215740,-0.048199,-0.215739,-0.048198,-0.193831,-0.037980,-0.193829,-0.037978,-0.170669,-0.029078,-0.147198,-0.021378,-0.123419,-0.014878,-0.123418,-0.014878,-0.099328,-0.009578,-0.074918,-0.005378,-0.050198,-0.002378,-0.050197,-0.002378,-0.025167,-0.000578,
0.000171,0.000016,0.000173,0.000016,0.000177,0.000015,0.000177,0.000015,$1*%
%AMFreePoly10*
4,1,323,-0.370726,0.787642,-0.345695,0.786705,-0.320975,0.785105,-0.320974,0.785105,-0.296565,0.782905,-0.272476,0.780105,-0.272475,0.780105,-0.248695,0.776705,-0.225226,0.772605,-0.225225,0.772605,-0.202065,0.767905,-0.178975,0.762505,-0.155695,0.756305,-0.132224,0.749305,-0.108564,0.741505,-0.084724,0.732805,-0.060694,0.723305,-0.036474,0.713025,-0.012064,0.701935,-0.012061,0.701932,
-0.012061,0.701928,-0.102061,0.487928,-0.102064,0.487925,-0.102068,0.487925,-0.121938,0.496225,-0.141558,0.504125,-0.160938,0.511725,-0.180058,0.518925,-0.198938,0.525725,-0.198939,0.525726,-0.217568,0.532125,-0.235938,0.538225,-0.235939,0.538226,-0.254067,0.543925,-0.272097,0.549525,-0.290187,0.554425,-0.308347,0.558525,-0.308348,0.558525,-0.326567,0.561925,-0.344847,0.564525,
-0.363187,0.566425,-0.381596,0.567525,-0.400065,0.567900,-0.431005,0.566800,-0.457815,0.563400,-0.480504,0.557800,-0.499064,0.549900,-0.513502,0.539772,-0.523811,0.527403,-0.530011,0.512774,-0.532111,0.495906,-0.532111,0.495905,-0.531861,0.489506,-0.531111,0.483206,-0.529811,0.477006,-0.528111,0.470907,-0.525813,0.465009,-0.525811,0.465007,-0.523111,0.459207,-0.519813,0.453509,
-0.519812,0.453508,-0.516113,0.447909,-0.516112,0.447909,-0.511113,0.442809,-0.505213,0.437609,-0.498413,0.432309,-0.490613,0.426909,-0.481915,0.421309,-0.481913,0.421309,-0.472213,0.415609,-0.472212,0.415608,-0.461624,0.409810,-0.461622,0.409808,-0.450096,0.403910,-0.450094,0.403910,-0.436876,0.397710,-0.436874,0.397710,-0.422214,0.391010,-0.406126,0.383710,-0.406124,0.383710,
-0.388596,0.376010,-0.388594,0.376010,-0.369624,0.367710,-0.349214,0.358910,-0.327376,0.349710,-0.327374,0.349710,-0.304094,0.340010,-0.281004,0.330410,-0.258724,0.320710,-0.237256,0.310910,-0.237254,0.310910,-0.216593,0.301009,-0.216590,0.301007,-0.196754,0.290949,-0.177723,0.280759,-0.177722,0.280758,-0.159503,0.270449,-0.142097,0.260011,-0.142093,0.260009,-0.125593,0.249669,
-0.110093,0.238639,-0.095593,0.226919,-0.082093,0.214509,-0.082092,0.214508,-0.069595,0.201421,-0.069592,0.201418,-0.058095,0.187641,-0.058092,0.187638,-0.047593,0.173169,-0.047592,0.173168,-0.038094,0.158010,-0.038092,0.158007,-0.029194,0.141980,-0.029191,0.141977,-0.021491,0.124887,-0.014991,0.106727,-0.014991,0.106726,-0.009691,0.087507,-0.009691,0.087506,-0.005491,0.067226,
-0.002491,0.045886,-0.002491,0.045885,-0.000691,0.023476,-0.000691,0.023475,-0.000097,0.000010,0.000000,0.000005,0.000004,0.000004,0.000005,0.000000,-0.001795,-0.040306,-0.001795,-0.040310,-0.007295,-0.078249,-0.007295,-0.078251,-0.016495,-0.113810,-0.016495,-0.113812,-0.029404,-0.147000,-0.029405,-0.147002,-0.045994,-0.177809,-0.045996,-0.177813,-0.066276,-0.206253,-0.066279,-0.206256,
-0.090246,-0.232313,-0.090247,-0.232314,-0.117907,-0.256004,-0.117910,-0.256006,-0.148714,-0.276622,-0.148717,-0.276624,-0.148721,-0.276626,-0.183156,-0.294503,-0.183158,-0.294505,-0.221218,-0.309625,-0.221219,-0.309625,-0.262909,-0.322005,-0.308219,-0.331605,-0.357159,-0.338505,-0.409720,-0.342605,-0.465910,-0.344005,-0.493910,-0.343755,-0.493911,-0.343755,-0.520910,-0.343005,-0.546910,-0.341805,
-0.571910,-0.340005,-0.595910,-0.337705,-0.595911,-0.337705,-0.618911,-0.335005,-0.640911,-0.331705,-0.661911,-0.328005,-0.682411,-0.324205,-0.702911,-0.319805,-0.723411,-0.314705,-0.743911,-0.309005,-0.743912,-0.309005,-0.764411,-0.302705,-0.764412,-0.302705,-0.784912,-0.295805,-0.805412,-0.288205,-0.825912,-0.280005,-0.825913,-0.280004,-0.825914,-0.280004,-0.825915,-0.280000,-0.825915,-0.033998,
-0.825914,-0.033997,-0.825914,-0.033996,-0.825913,-0.033996,-0.825912,-0.033995,-0.825908,-0.033995,-0.803688,-0.043795,-0.781028,-0.053095,-0.757938,-0.061995,-0.734409,-0.070495,-0.734408,-0.070495,-0.710438,-0.078495,-0.686028,-0.086095,-0.686027,-0.086096,-0.661189,-0.093295,-0.635909,-0.099995,-0.610779,-0.106095,-0.586409,-0.111395,-0.562789,-0.115895,-0.539909,-0.119595,-0.517789,-0.122395,
-0.496420,-0.124395,-0.475790,-0.125595,-0.455920,-0.126001,-0.435170,-0.125595,-0.415921,-0.124395,-0.398171,-0.122395,-0.381921,-0.119595,-0.367173,-0.115895,-0.367172,-0.115895,-0.353922,-0.111395,-0.342172,-0.106095,-0.342171,-0.106095,-0.331924,-0.099997,-0.331923,-0.099996,-0.323023,-0.093296,-0.315323,-0.086096,-0.308824,-0.078297,-0.303525,-0.070098,-0.299325,-0.061300,-0.299325,-0.061298,
-0.296325,-0.052098,-0.294525,-0.042299,-0.293931,-0.032050,-0.294181,-0.025150,-0.294931,-0.018451,-0.294931,-0.018449,-0.296131,-0.011951,-0.296131,-0.011950,-0.297931,-0.005651,-0.300231,0.000548,-0.300231,0.000550,-0.302931,0.006548,-0.302931,0.006550,-0.306229,0.012346,-0.306230,0.012347,-0.309930,0.017947,-0.309932,0.017950,-0.314029,0.023545,-0.314030,0.023546,-0.319230,0.029347,
-0.325529,0.035346,-0.325530,0.035347,-0.332929,0.041546,-0.332930,0.041547,-0.341529,0.047846,-0.341530,0.047847,-0.351229,0.054346,-0.362039,0.061046,-0.373979,0.067946,-0.387357,0.075146,-0.387359,0.075146,-0.402478,0.082946,-0.419348,0.091246,-0.437978,0.099945,-0.458358,0.109245,-0.458360,0.109247,-0.480478,0.118945,-0.504358,0.129195,-0.529978,0.139945,-0.555388,0.150915,
-0.579608,0.161825,-0.602638,0.172665,-0.624474,0.183444,-0.624478,0.183445,-0.645137,0.194166,-0.645139,0.194166,-0.664608,0.204826,-0.664611,0.204828,-0.682889,0.215416,-0.682890,0.215417,-0.699979,0.225946,-0.699980,0.225947,-0.715479,0.237196,-0.715480,0.237197,-0.729979,0.248946,-0.729982,0.248949,-0.743479,0.261196,-0.743480,0.261197,-0.755980,0.273946,-0.767480,0.287197,
-0.777980,0.300947,-0.777982,0.300951,-0.787480,0.315197,-0.787482,0.315201,-0.795978,0.329945,-0.795981,0.329948,-0.803481,0.345918,-0.809981,0.362828,-0.815481,0.380669,-0.815481,0.380670,-0.819981,0.399449,-0.819981,0.399451,-0.823481,0.419169,-0.823481,0.419173,-0.825981,0.439829,-0.825981,0.439830,-0.827481,0.461420,-0.827981,0.483950,-0.826181,0.520760,-0.826181,0.520761,
-0.820681,0.555200,-0.820681,0.555201,-0.811481,0.587261,-0.811481,0.587262,-0.798571,0.616952,-0.798569,0.616954,-0.781980,0.644263,-0.761700,0.669203,-0.761699,0.669204,-0.737729,0.691764,-0.737726,0.691766,-0.710069,0.711954,-0.679349,0.729764,-0.679348,0.729765,-0.646190,0.745203,-0.646188,0.745205,-0.610597,0.758265,-0.572567,0.768955,-0.532097,0.777255,-0.489186,0.783155,
-0.443846,0.786755,-0.396066,0.787955,-0.370726,0.787642,-0.370726,0.787642,$1*%
%AMFreePoly11*
4,1,131,-0.451170,0.559805,-0.451169,0.559805,-0.380919,0.547435,-0.315168,0.526805,-0.253921,0.497936,-0.253917,0.497934,-0.198040,0.461186,-0.198037,0.461184,-0.148407,0.416934,-0.148406,0.416933,-0.105039,0.365186,-0.105036,0.365183,-0.067915,0.305932,-0.038165,0.239552,-0.038165,0.239551,-0.016915,0.166432,-0.016915,0.166431,-0.004165,0.086551,-0.004165,0.086550,0.000035,-0.000070,
0.000034,-0.000074,0.000030,-0.000075,0.000028,-0.000075,0.000027,-0.000074,0.000026,-0.000074,0.000025,-0.000072,0.000004,-0.000022,-0.008995,-0.128247,-0.008995,-0.128251,-0.035995,-0.240999,-0.035995,-0.241002,-0.080995,-0.338252,-0.080998,-0.338255,-0.143996,-0.420003,-0.143999,-0.420006,-0.221495,-0.484752,-0.221498,-0.484755,-0.311995,-0.531002,-0.311995,-0.531003,-0.311998,-0.531005,
-0.415495,-0.558754,-0.415499,-0.558755,-0.527890,-0.567727,-0.532000,-0.568055,-0.532001,-0.568055,-0.606000,-0.563955,-0.606001,-0.563955,-0.676001,-0.551575,-0.676002,-0.551575,-0.742001,-0.530955,-0.742005,-0.530953,-0.804002,-0.502085,-0.804005,-0.502082,-0.859883,-0.465334,-0.859886,-0.465331,-0.909502,-0.421085,-0.909504,-0.421084,-0.952874,-0.369333,-0.952876,-0.369330,-0.990004,-0.310083,
-0.990006,-0.310079,-1.019755,-0.242712,-1.019755,-0.242710,-1.041005,-0.168591,-1.041005,-0.168589,-1.053755,-0.087711,-1.053755,-0.087707,-1.057955,-0.000080,-1.057949,0.000000,-0.753995,0.000000,-0.750695,-0.076129,-0.740895,-0.142499,-0.724645,-0.199128,-0.724645,-0.199130,-0.701895,-0.245998,-0.670767,-0.281866,-0.631399,-0.307495,-0.631398,-0.307495,-0.583768,-0.322875,-0.527890,-0.327975,
-0.473022,-0.322875,-0.426402,-0.307495,-0.388023,-0.281866,-0.357904,-0.245997,-0.357903,-0.245996,-0.334275,-0.199129,-0.317405,-0.142499,-0.307275,-0.076129,-0.303875,0.000000,-0.307275,0.075870,-0.307275,0.075871,-0.317405,0.141489,-0.334275,0.196858,-0.357903,0.241976,-0.357904,0.241977,-0.388153,0.277856,-0.426901,0.303485,-0.426902,0.303485,-0.474152,0.318855,-0.529899,0.323955,
-0.584899,0.318855,-0.631898,0.303485,-0.631899,0.303485,-0.670897,0.277856,-0.701896,0.241977,-0.701897,0.241976,-0.724645,0.196860,-0.724645,0.196858,-0.740895,0.141490,-0.750695,0.075871,-0.750695,0.075870,-0.753995,0.000000,-1.057949,0.000000,-1.049055,0.128046,-1.049054,0.128050,-1.022425,0.240421,-1.022425,0.240422,-0.978045,0.337052,-0.978042,0.337055,-0.915924,0.417923,
-0.915921,0.417926,-0.838293,0.481794,-0.838289,0.481796,-0.747425,0.527422,-0.747425,0.527423,-0.747421,0.527425,-0.643296,0.554805,-0.643295,0.554805,-0.525921,0.563905,-0.525920,0.563905,-0.451170,0.559805,-0.451170,0.559805,$1*%
%AMFreePoly12*
4,1,13,0.000004,0.000004,0.000005,0.000000,0.000005,-1.092000,0.000004,-1.092004,0.000000,-1.092005,-0.298000,-1.092005,-0.298004,-1.092004,-0.298005,-1.092000,-0.298005,0.000000,-0.298004,0.000004,-0.298000,0.000005,0.000000,0.000005,0.000004,0.000004,0.000004,0.000004,$1*%
%AMFreePoly13*
4,1,90,0.000004,0.000004,0.000005,0.000000,0.000005,-0.680000,-0.000089,-0.695499,-0.000089,-0.695500,-0.000370,-0.711000,-0.000839,-0.726500,-0.001495,-0.742000,-0.002339,-0.757500,-0.002339,-0.757501,-0.003339,-0.773000,-0.003339,-0.773001,-0.004539,-0.788500,-0.004539,-0.788501,-0.005939,-0.804000,-0.005939,-0.804001,-0.006939,-0.819030,-0.008039,-0.834120,-0.008039,-0.834121,-0.009239,-0.849280,
-0.009239,-0.849281,-0.010439,-0.864500,-0.010439,-0.864501,-0.011739,-0.879780,-0.013039,-0.895120,-0.013039,-0.895121,-0.014439,-0.910529,-0.014439,-0.910530,-0.015939,-0.925995,-0.011947,-0.925995,-0.004448,-0.915497,0.003152,-0.904997,0.003153,-0.904996,0.018552,-0.883997,0.018553,-0.883996,0.034152,-0.862997,0.042052,-0.852497,0.042053,-0.852496,0.050052,-0.841997,0.058152,-0.831527,
0.066352,-0.821117,0.066353,-0.821116,0.074652,-0.810777,0.083052,-0.800497,0.091652,-0.790277,0.091653,-0.790276,0.100352,-0.780117,0.100353,-0.780116,0.109152,-0.770027,0.118052,-0.759997,0.424052,-0.427997,0.424052,-0.427996,0.424054,-0.427996,0.424056,-0.427994,0.424058,-0.427995,0.760055,-0.427995,0.760056,-0.427994,0.760060,-0.427996,0.760062,-0.427999,0.760061,-0.428002,
0.760060,-0.428004,0.760059,-0.428004,0.326062,-0.902000,0.786059,-1.519996,0.786060,-1.519996,0.786060,-1.519997,0.786062,-1.520001,0.786060,-1.520003,0.786060,-1.520004,0.786058,-1.520005,0.786055,-1.520006,0.786054,-1.520005,0.442057,-1.520005,0.442055,-1.520006,0.442053,-1.520004,0.442052,-1.520004,0.442051,-1.520001,0.128055,-1.078007,0.000061,-1.180002,0.000061,-1.520000,
0.000060,-1.520004,0.000056,-1.520005,-0.297944,-1.520005,-0.297948,-1.520004,-0.297949,-1.520000,-0.297949,0.000000,-0.297948,0.000004,-0.297944,0.000005,0.000000,0.000005,0.000004,0.000004,0.000004,0.000004,$1*%
G04 Aperture macros list end*
%ADD10RoundRect,0.250000X0.600000X0.600000X-0.600000X0.600000X-0.600000X-0.600000X0.600000X-0.600000X0*%
%ADD11C,1.700000*%
%ADD12C,5.700000*%
%ADD13C,3.000000*%
%ADD14R,3.000000X3.000000*%
%ADD15FreePoly0,0.000000*%
%ADD16FreePoly1,0.000000*%
%ADD17FreePoly2,0.000000*%
%ADD18FreePoly3,0.000000*%
%ADD19FreePoly4,0.000000*%
%ADD20FreePoly5,0.000000*%
%ADD21FreePoly6,0.000000*%
%ADD22FreePoly7,0.000000*%
%ADD23FreePoly8,0.000000*%
%ADD24FreePoly9,0.000000*%
%ADD25FreePoly10,0.000000*%
%ADD26FreePoly11,0.000000*%
%ADD27FreePoly12,0.000000*%
%ADD28FreePoly13,0.000000*%
G04 APERTURE END LIST*
D10*
X62278928Y-58080000D03*
D11*
X59738928Y-58080000D03*
X62278928Y-55540000D03*
X59738928Y-55540000D03*
X62278928Y-53000000D03*
X59738928Y-53000000D03*
X62278928Y-50460000D03*
X59738928Y-50460000D03*
X62278928Y-47920000D03*
X59738928Y-47920000D03*
D12*
X126000000Y-68000000D03*
D10*
X49002500Y-58080000D03*
D11*
X46462500Y-58080000D03*
X49002500Y-55540000D03*
X46462500Y-55540000D03*
X49002500Y-53000000D03*
X46462500Y-53000000D03*
X49002500Y-50460000D03*
X46462500Y-50460000D03*
X49002500Y-47920000D03*
X46462500Y-47920000D03*
D10*
X102108212Y-58080000D03*
D11*
X99568212Y-58080000D03*
X102108212Y-55540000D03*
X99568212Y-55540000D03*
X102108212Y-53000000D03*
X99568212Y-53000000D03*
X102108212Y-50460000D03*
X99568212Y-50460000D03*
X102108212Y-47920000D03*
X99568212Y-47920000D03*
D12*
X126000000Y-38000000D03*
D13*
X126000000Y-58080000D03*
X126000000Y-53000000D03*
D14*
X126000000Y-47920000D03*
D10*
X75555356Y-58080000D03*
D11*
X73015356Y-58080000D03*
X75555356Y-55540000D03*
X73015356Y-55540000D03*
X75555356Y-53000000D03*
X73015356Y-53000000D03*
X75555356Y-50460000D03*
X73015356Y-50460000D03*
X75555356Y-47920000D03*
X73015356Y-47920000D03*
D12*
X36000000Y-38000000D03*
D10*
X115384640Y-58080000D03*
D11*
X112844640Y-58080000D03*
X115384640Y-55540000D03*
X112844640Y-55540000D03*
X115384640Y-53000000D03*
X112844640Y-53000000D03*
X115384640Y-50460000D03*
X112844640Y-50460000D03*
X115384640Y-47920000D03*
X112844640Y-47920000D03*
D10*
X88831784Y-58080000D03*
D11*
X86291784Y-58080000D03*
X88831784Y-55540000D03*
X86291784Y-55540000D03*
X88831784Y-53000000D03*
X86291784Y-53000000D03*
X88831784Y-50460000D03*
X86291784Y-50460000D03*
X88831784Y-47920000D03*
X86291784Y-47920000D03*
D12*
X36000000Y-68000000D03*
D15*
X102801965Y-68658000D03*
D16*
X109523964Y-69770000D03*
D17*
X114775965Y-68250000D03*
D18*
X107801962Y-69770000D03*
D19*
X112801964Y-69790000D03*
D20*
X105353963Y-68658000D03*
D21*
X108465963Y-68656000D03*
D22*
X101405966Y-69054000D03*
D23*
X110283964Y-68656000D03*
D24*
X111663964Y-68658000D03*
D25*
X106809962Y-69446000D03*
D26*
X104487964Y-69222000D03*
D27*
X114923965Y-68678000D03*
D28*
X113683963Y-68250000D03*
D14*
X36000000Y-47920000D03*
D13*
X36000000Y-53000000D03*
X36000000Y-58080000D03*
M02*
